<svg width="84" height="125" viewBox="0 0 84 125"><g transform="rotate(-30, 49, 64)" stroke="black" ><path fill="pink" d="m69 23c-10-10-30-10-40 0 0 0 0-20 0-20 10-10 30-10 40 0 0 0 0 20 0 20zM69 93"/><path fill="orange" d="m69 93c0 0 0-70 0-70 -10-10-30-10-40 0 0 0 0 70 0 70 11-11 31-9 40 0zm-28-77c0 0 0 70 0 70m15 0c0 0 0-70 0-70"/><path fill="Bisque" d="m69 93c0 0-15 30-15 30 -3-1-8-1-10 0 0 0-15-30-15-30 11-11 31-9 40 0z"/><path fill="black" d="m49 133c0 0 5-10 5-10 -3-1-8-1-10 0 0 0 5 10 5 10z"/></g></svg>
